<svg width="24" height="24" viewBox="0 0 24 24" fill="none" xmlns="http://www.w3.org/2000/svg">
<g clip-path="url(#clip0_4418_3689)">
<path d="M16.1502 12.8299L14.4202 13.4099C13.9402 13.5699 13.5702 13.9399 13.4102 14.4199L12.8302 16.1499C12.3402 17.6399 10.2402 17.6099 9.78018 16.1199L7.83019 9.83988C7.45019 8.58988 8.60019 7.43989 9.83019 7.81989L16.1202 9.76987C17.6102 10.2399 17.6302 12.3399 16.1502 12.8299Z" stroke="#fff" stroke-width="1.5" stroke-linecap="round" stroke-linejoin="round"/>
<path d="M4 6C2.75 7.67 2 9.75 2 12C2 17.52 6.48 22 12 22C17.52 22 22 17.52 22 12C22 6.48 17.52 2 12 2C10.57 2 9.2 2.30001 7.97 2.85001" stroke="#fff" stroke-width="1.5" stroke-linecap="round" stroke-linejoin="round"/>
</g>
<defs>
<clipPath id="clip0_4418_3689">
<rect width="24" height="24" fill="none"/>
</clipPath>
</defs>
</svg>